<svg xmlns="http://www.w3.org/2000/svg" xmlns:xlink="http://www.w3.org/1999/xlink" width="1440" height="720" viewBox="0 0 1440 720">
  <defs>
    <clipPath id="clip-Artboard_5">
      <rect width="1440" height="720"/>
    </clipPath>
  </defs>
  <g id="Artboard_5" data-name="Artboard – 5" clip-path="url(#clip-Artboard_5)">
    <path id="Exclusion_1" data-name="Exclusion 1" d="M-657,3179h-720a729.808,729.808,0,0,0,73.511-3.721,720.6,720.6,0,0,0,71.411-10.914c23.174-4.748,46.371-10.718,68.947-17.746,22.322-6.948,44.568-15.094,66.119-24.212a721.345,721.345,0,0,0,122.291-66.369,726.876,726.876,0,0,0,106.6-87.867,726.293,726.293,0,0,0,87.989-106.451A719.719,719.719,0,0,0-713.671,2739.6c9.131-21.521,17.289-43.735,24.246-66.027,7.037-22.545,13.016-45.71,17.77-68.851a717.716,717.716,0,0,0,10.93-71.312A726.272,726.272,0,0,0-657,2460H-2097a729.607,729.607,0,0,1,3.717-73.514,719.985,719.985,0,0,1,10.91-71.39c4.748-23.167,10.717-46.35,17.742-68.905,6.947-22.305,15.093-44.531,24.211-66.058,9.034-21.33,19.235-42.476,30.319-62.851,11-20.229,23.138-40.175,36.065-59.281,12.862-19.012,26.808-37.635,41.449-55.351,14.6-17.672,30.24-34.851,46.47-51.059s33.433-31.821,51.13-46.405c17.741-14.621,36.39-28.547,55.428-41.391,19.131-12.907,39.1-25.024,59.364-36.014,20.4-11.069,41.58-21.256,62.938-30.277,21.555-9.1,43.811-17.239,66.15-24.178,22.59-7.016,45.805-12.978,69-17.717a722.715,722.715,0,0,1,71.489-10.9A732.593,732.593,0,0,1-1377,1741a732.587,732.587,0,0,1,73.616,3.712,722.722,722.722,0,0,1,71.489,10.9c23.2,4.74,46.412,10.7,69,17.717,22.339,6.938,44.595,15.073,66.151,24.178,21.359,9.021,42.534,19.208,62.938,30.277,20.26,10.991,40.233,23.108,59.364,36.014,19.038,12.844,37.687,26.77,55.428,41.391,17.7,14.584,34.9,30.2,51.13,46.405s31.864,33.386,46.47,51.059c14.639,17.714,28.585,36.337,41.448,55.351,12.924,19.1,25.058,39.049,36.065,59.281,11.084,20.375,21.284,41.521,30.319,62.851,9.118,21.527,17.264,43.752,24.211,66.058,7.026,22.559,13,45.742,17.742,68.905a719.869,719.869,0,0,1,10.911,71.39A729.543,729.543,0,0,1-657,2460h0v719Zm-721.784,0H-2097V2461.254c.668,394.785,322.858,716.764,718.215,717.744Z" transform="translate(2097 -2460)" fill="#003cff"/>
  </g>
</svg>
