<svg xmlns="http://www.w3.org/2000/svg" xmlns:xlink="http://www.w3.org/1999/xlink" width="1440" height="71" viewBox="0 0 1440 71">
  <defs>
    <clipPath id="clip-Artboard_6">
      <rect width="1440" height="71"/>
    </clipPath>
  </defs>
  <g id="Artboard_6" data-name="Artboard – 6" clip-path="url(#clip-Artboard_6)">
    <path id="Exclusion_2" data-name="Exclusion 2" d="M-2305,1882h-719.793c97.107,0,191.33-1.866,280.05-5.54,42.663-1.767,83.811-3.953,122.3-6.5,38.122-2.522,73.973-5.418,106.558-8.608s62.156-6.7,87.918-10.434c26.007-3.77,48.341-7.8,66.384-11.975,18.378-4.255,32.493-8.707,41.953-13.234a42.137,42.137,0,0,0,10.91-7c2.406-2.32,3.656-4.687,3.715-7.035l0,70.326Zm-725.751,0H-3745v-70.327c.061,2.348,1.311,4.715,3.718,7.035a42.127,42.127,0,0,0,10.911,7c9.46,4.527,23.575,8.979,41.953,13.234,18.043,4.177,40.378,8.206,66.384,11.975,25.762,3.734,55.342,7.244,87.918,10.434s68.436,6.087,106.558,8.608c38.49,2.546,79.639,4.733,122.3,6.5,86.991,3.6,179.348,5.466,274.505,5.538Zm725.733-71H-3744.983c.169-2.392,1.578-4.8,4.187-7.165a45.85,45.85,0,0,1,11.3-6.956c9.688-4.5,23.983-8.921,42.49-13.146,18.18-4.15,40.6-8.151,66.638-11.891,25.8-3.707,55.385-7.191,87.927-10.357s68.33-6.04,106.36-8.543c38.4-2.526,79.421-4.7,121.933-6.448,88.45-3.646,182.37-5.495,279.152-5.495s190.7,1.849,279.152,5.495c42.511,1.752,83.535,3.922,121.933,6.448,38.029,2.5,73.814,5.376,106.359,8.543s62.125,6.65,87.928,10.357c26.039,3.741,48.459,7.741,66.637,11.891,18.507,4.225,32.8,8.648,42.49,13.146a45.854,45.854,0,0,1,11.3,6.956c2.609,2.363,4.017,4.773,4.187,7.164Z" transform="translate(3745 -1811)" fill="#ffffffff"/>
  </g>
</svg>
