<?xml version="1.0" encoding="utf-8"?>
<!-- Generator: Adobe Illustrator 19.0.0, SVG Export Plug-In . SVG Version: 6.00 Build 0)  -->
<svg version="1.1" id="Layer_1" xmlns="http://www.w3.org/2000/svg" xmlns:xlink="http://www.w3.org/1999/xlink" x="0px" y="0px"
	 viewBox="0 0 500 500" style="enable-background:new 0 0 500 500;" xml:space="preserve">
<style type="text/css">
	.st0{fill:#0059A9;}
	.st1{fill:#81C240;}
</style>
<g id="XMLID_1_">
	<path id="XMLID_3_" class="st0" d="M154.6,94.3c28.1-17.4,61-26.7,94-26.9c0,27.4,0.1,54.8,0,82.1c-23.6,0.3-46.9,9.2-64.6,24.8
		c-16.8,14.6-28.6,35-32.7,56.9c-3.6,19.2-1.6,39.4,5.9,57.4c8.7,21.2,25,39.2,45.2,50c14.1,7.6,30.1,11.7,46.1,12
		c0,27.4,0,54.7,0,82.1c-37.3-0.2-74.4-12.2-104.7-34c-20.6-14.8-38.1-33.8-51-55.6c-15.6-26.2-24.4-56.4-25.3-86.9
		c-1-29.3,5.1-58.8,17.8-85.2C100.5,139.5,124.8,112.5,154.6,94.3z"/>
	<path id="XMLID_4_" class="st1" d="M264.4,68c24.8,1.8,49.1,8.9,71,20.6c37.7,19.9,68,53.4,83.9,93c1,2.4,1.9,4.8,2.6,7.3
		c-29.3,0-58.6,0-87.9,0c-1.8-0.1-4.2,0.6-5.3-1.4c-3.5-4.6-7.6-8.6-11.8-12.5c-14.6-13.1-33.1-21.5-52.4-24.5
		C264.3,123,264.4,95.5,264.4,68z"/>
	<path id="XMLID_5_" class="st1" d="M264.4,222.3c55.4-0.1,110.7,0,166.1,0c4.6,31.1,1.5,63.3-9.8,92.7c-10.3,27-27,51.6-48.6,70.9
		c-29.5,26.7-68,43.4-107.7,46.2c0-27.5-0.1-54.9,0-82.4c21.6-3.2,42.1-13.5,57.4-29.2c3.6-3.7,7.1-7.6,9.9-12
		c-22.4-0.2-44.8-0.2-67.2-0.1C264.4,279.6,264.4,250.9,264.4,222.3z"/>
</g>
</svg>
