<?xml version="1.0" encoding="utf-8"?>
<!-- Generator: Adobe Illustrator 19.2.1, SVG Export Plug-In . SVG Version: 6.00 Build 0)  -->
<svg version="1.1" id="layer" xmlns="http://www.w3.org/2000/svg" xmlns:xlink="http://www.w3.org/1999/xlink" x="0px" y="0px"
	 viewBox="0 0 652 652" style="enable-background:new 0 0 652 652;" xml:space="preserve">
<style type="text/css">
	.st0{fill:#FF7A00;}
</style>
<g>
	<path d="M117.4,250H81.6c-8.1,0-13.8,1.6-17.1,4.9c-3.3,3.3-4.1,9-4.1,17.9v19.5h47.2v26.9H60.4v149H20.5V273.6
		c0-16.3,3.3-27.7,10.6-35c7.3-7.3,19.5-10.6,36.6-10.6h49.7V250"/>
	<path d="M186.6,329.8c0-13-0.8-22-2.4-26.9c-1.6-4.9-4.9-7.3-9.8-7.3c-4.9,0-8.1,2.4-9.8,6.5c-1.6,4.1-2.4,13.8-2.4,27.7H186.6
		 M217.6,351.7H163c0,22,0.8,36.6,2.4,42.3c1.6,5.7,4.9,9,10.6,9c3.3,0,6.5-0.8,8.1-3.3c1.6-2.4,2.4-6.5,2.4-12.2h26.9
		c0,13-3.3,22.8-9.8,29.3c-6.5,6.5-17.1,9.8-31.8,9.8c-15.5,0-27.7-6.5-35.8-19.5c-8.1-13-12.2-32.6-12.2-57.8s4.1-44.8,12.2-57.8
		c8.1-13,21.2-19.5,38.3-19.5c14.7,0,25.2,4.9,31.8,15.5c6.5,10.6,10.6,26.1,10.6,47.2v17.1H217.6z"/>
	<path d="M307.1,307c-3.3-0.8-5.7-2.4-9-2.4c-3.3-0.8-5.7-0.8-9-0.8c-3.3,0-7.3,0-10.6,0.8c-3.3,0.8-5.7,1.6-7.3,2.4v118.9h-36.6
		V273.6h30.9l2.4,6.5c3.3-3.3,7.3-4.9,12.2-6.5c4.9-1.6,9.8-2.4,15.5-2.4c2.4,0,4.9,0,6.5,0.8c1.6,0.8,4.1,1.6,5.7,2.4V307"/>
	<path d="M391,307c-3.3-0.8-5.7-2.4-9-2.4c-3.3-0.8-5.7-0.8-9-0.8c-3.3,0-7.3,0-10.6,0.8c-3.3,0.8-5.7,1.6-7.3,2.4v118.9h-37.4
		V273.6h30.9l2.4,6.5c3.3-3.3,7.3-4.9,12.2-6.5c4.9-1.6,9.8-2.4,15.5-2.4c2.4,0,4.9,0,6.5,0.8c2.4,0.8,4.1,1.6,5.7,2.4L391,307"/>
	<path d="M459.4,349.3c0-24.4-0.8-39.1-1.6-44.8s-4.1-9-9-9c-4.9,0-8.1,3.3-9,9c-1.6,5.7-1.6,21.2-1.6,45.6
		c0,23.6,0.8,38.3,1.6,44.8c1.6,5.7,4.1,9,9,9c4.1,0,7.3-3.3,9-9.8C458.5,387.6,459.4,372.1,459.4,349.3 M498.4,349.3
		c0,26.9-4.1,46.4-12.2,59.4c-8.1,12.2-20.4,18.7-37.4,18.7c-16.3,0-28.5-6.5-37.4-19.5c-8.1-13-12.2-32.6-12.2-57.8
		c0-26.9,4.1-45.6,12.2-58.6c8.1-12.2,20.4-18.7,37.4-18.7c17.9,0,30.9,6.5,38.3,18.7C494.4,303.7,498.4,323.2,498.4,349.3z"/>
	<path d="M568.4,425h-23.6c-9,0-16.3-2.4-21.2-7.3c-4.9-4.9-7.3-13-7.3-22.8V228h37.4v165.3c0,4.1,0.8,7.3,2.4,9
		c1.6,1.6,5.7,2.4,11.4,2.4V425"/>
	<path d="M583.1,273.6h37.4V425h-37.4V273.6z M583.1,228h37.4v34.2h-37.4V228z"/>
	<path d="M434.9,259.7c-22.8-27.7-58.6-53.7-102.6-69.2C259.1,163.7,185,171.8,150,206.8c1.6,17.1,9,35.8,20.4,52.9
		c26.1-50.5,110.7-66.8,196.2-35.8c26.1,9.8,49.7,22.8,69.2,37.4L434.9,259.7z"/>
	<path class="st0" d="M434.9,259.7c-22.8-27.7-58.6-53.7-102.6-69.2C259.1,163.7,185,171.8,150,206.8c1.6,17.1,9,35.8,20.4,52.9
		c26.1-50.5,110.7-66.8,196.2-35.8c26.1,9.8,49.7,22.8,69.2,37.4L434.9,259.7z"/>
</g>
</svg>
