<?xml version="1.0" encoding="utf-8"?>
<!-- Generator: Adobe Illustrator 19.0.0, SVG Export Plug-In . SVG Version: 6.00 Build 0)  -->
<svg version="1.1" id="Layer_1" xmlns="http://www.w3.org/2000/svg" xmlns:xlink="http://www.w3.org/1999/xlink" x="0px" y="0px"
	 viewBox="0 0 500 500" style="enable-background:new 0 0 500 500;" xml:space="preserve">
<style type="text/css">
	.st0{fill:#00A0E3;}
</style>
<g id="XMLID_1_">
	<path id="XMLID_3_" class="st0" d="M132.1,210.4c5,0,10,0,15,0c0,4.7,0,9.4,0,14.1c-5,0-10,0-15,0
		C132.1,219.8,132.1,215.1,132.1,210.4z"/>
	<path id="XMLID_4_" class="st0" d="M67.5,211.3c18.2,0,36.4,0,54.6,0c0,4.5,0,9.1,0,13.6c-12.9,0-25.7,0-38.6,0
		c0,5.8,0,11.6,0,17.4c11.3,0,22.5,0,33.8,0c-0.1,4.5,0,9.1,0,13.6c-11.2,0-22.5,0-33.7,0c0,10.8,0,21.5,0,32.3
		c-5.4,0-10.7,0-16.1,0C67.5,262.5,67.5,236.9,67.5,211.3z"/>
	<path id="XMLID_5_" class="st0" d="M292.7,211.3c5,0,10,0,15,0c0,25.6,0,51.2,0,76.8c-5,0-10,0-15,0
		C292.7,262.5,292.7,236.9,292.7,211.3z"/>
	<path id="XMLID_6_" class="st0" d="M188,230.2c2.4-0.6,4.9-0.5,7.3-0.4c4.2,0.3,8.5,1.6,11.8,4.5c3.9,3.3,5.8,8.5,5.8,13.5
		c0,13.5,0,26.9,0,40.4c-5,0-10,0-15,0c0-11.6,0-23.2,0-34.8c0-2.7-0.3-5.5-1.7-7.8c-1.3-2.1-4-2.7-6.3-2.9c-3.5-0.3-7.5,0.3-10,2.9
		c-2.5,2.7-3.5,6.4-3.5,10c0,10.9,0,21.8,0,32.7c-5,0-10,0-15,0c0-19,0-38,0-57.1c4.8,0,9.6,0,14.3,0c0,2.8,0,5.7,0,8.5
		c0.8-0.8,1.2-1.9,1.9-2.7C180.2,233.5,183.9,231.1,188,230.2L188,230.2z"/>
	<path id="XMLID_9_" class="st0" d="M250.4,229.8c4.8-0.2,9.7,0.2,14.3,2c4.6,1.7,8.6,4.8,11.5,8.7c3.1,4.4,5,9.6,5.5,14.9
		c0.5,5.2,0.2,10.6-1.5,15.6c-1.8,5.3-5.2,10.1-9.7,13.5c-4.2,3.1-9.4,4.6-14.5,4.9c-5,0.3-10.2,0-15-1.8c-3.9-1.4-7.4-3.8-10-7.1
		c-4.8-5.7-7.5-13.2-7.3-20.7c-0.2-6.2,1.4-12.5,4.7-17.8c2.1-3.2,4.7-6.2,8-8.2C240.4,231.2,245.4,230,250.4,229.8 M251.6,242.5
		c-3.6,0.2-7.5,1.6-9.5,4.8c-2.8,4.7-3.5,10.4-3,15.8c0.3,3.7,1.4,7.6,4,10.4c2.5,2.6,6.3,3.6,9.8,3.5c3.6,0.1,7.4-1.1,9.8-4
		c2.8-3.3,3.5-7.8,3.7-12c0.2-4.2-0.5-8.4-2.3-12.2c-0.8-1.9-2.2-3.5-4-4.5C257.6,242.7,254.5,242.3,251.6,242.5z"/>
	<path id="XMLID_12_" class="st0" d="M333.2,231.7c5-2,10.4-2.2,15.7-1.8c4.1,0.4,8.2,1.5,11.6,3.8c3.2,2.1,5.5,5.4,7.2,8.8
		c3.3,6.5,4.1,14,3.9,21.2c-13,0-26.1,0-39.1,0c0.3,3.7,1.2,7.8,3.9,10.5c2.8,2.9,7.1,3.7,11,3.4c3.5-0.3,7-2.6,8.1-6.1
		c5.1,0,10.3,0,15.4,0c-1.5,5.3-4.7,10.3-9.3,13.4c-4,2.9-9,4.5-14,4.6c-4.1,0.2-8.2-0.2-12.2-1.3c-3.4-0.9-6.6-2.6-9.2-4.9
		c-3.4-3-5.6-7-6.8-11.3c-1.4-4.8-1.8-9.8-1.7-14.8c0.1-6.4,1.9-12.8,5.7-18C325.8,235.9,329.3,233.2,333.2,231.7 M337.5,244.5
		c-2.7,2.4-3.9,6-4.4,9.5c7.7,0.1,15.5,0,23.2,0.1c-0.2-3.1-1.2-6.4-3.5-8.6c-1.6-1.7-3.7-2.8-6-3.2
		C343.6,241.8,340,242.3,337.5,244.5z"/>
	<path id="XMLID_13_" class="st0" d="M132.1,231.1c5,0,10,0,15,0c0,19,0,38,0,57.1c-5,0-10,0-15,0
		C132.1,269.1,132.1,250.1,132.1,231.1L132.1,231.1z"/>
	<path id="XMLID_14_" class="st0" d="M377,231.1c6,0,12,0,18.1,0c3.2,5.5,6.3,11.1,9.5,16.6l0.2,0c3.2-5.5,6.3-11.1,9.6-16.6
		c5.8,0,11.7,0,17.5,0c-6.3,9.4-12.5,18.7-18.8,28.1c6.5,9.7,13,19.3,19.5,29c-6.1,0-12.3,0-18.4,0c-3.3-5.7-6.7-11.5-10-17.2
		c-3.2,5.7-6.5,11.4-9.7,17.2c-6,0-11.9,0-17.9,0c5.9-8.9,11.8-17.9,17.6-26.8c0.4-0.7,1-1.4,1.3-2.1
		C389.4,249.8,383.2,240.4,377,231.1L377,231.1z"/>
</g>
</svg>
