<?xml version="1.0" encoding="utf-8"?>
<!-- Generator: Adobe Illustrator 19.0.0, SVG Export Plug-In . SVG Version: 6.00 Build 0)  -->
<svg version="1.1" id="Layer_1" xmlns="http://www.w3.org/2000/svg" xmlns:xlink="http://www.w3.org/1999/xlink" x="0px" y="0px"
	 viewBox="0 0 500 500" style="enable-background:new 0 0 500 500;" xml:space="preserve">
<style type="text/css">
	.st0{fill:#ED1C24;}
	.st1{fill:#F25746;}
	.st2{fill:#BA151B;}
</style>
<g id="XMLID_1_">
	<path id="XMLID_11_" class="st0" d="M67.5,314.3h17.3v18.6h16.4v-18.6h17.3v54.9h-17.3v-21.2H84.8v21.2H67.5V314.3z M143.1,314.3
		h17.5l18.9,54.9h-17.2l-2.1-7.3h-17.1l-2,7.3h-16.8L143.1,314.3L143.1,314.3z M146.3,350.4h10.9l-5.6-19.6L146.3,350.4z
		 M176.3,314.3h17.5l9.3,36.4l9.6-36.4H230l-18.3,54.9h-17.4L176.3,314.3z M237.1,314.3h43v12.8h-25.7v7.9h21.6v12.8h-21.6v8.6h26.7
		v12.8h-44V314.3L237.1,314.3z M290,314.3h17.3v42.1H331v12.8h-41L290,314.3L290,314.3z M338.8,314.3h17.3v42.1h23.7v12.8h-41V314.3
		z M414.7,330.2c-0.4-3.1-2.8-4.7-7.1-4.7c-3.4,0-5.2,1-5.3,3c0,1.2,0.5,2.2,1.7,3c1.2,0.8,2.8,1.5,4.8,2c2,0.5,3.9,1,5.8,1.5
		c6.2,1.5,10.7,3.6,13.7,6.2c2.9,2.6,4.4,6.2,4.3,10.7c0,4.5-1.1,8.1-3.4,10.9c-2.3,2.8-5.3,4.8-9,6c-3.7,1.2-7.7,1.8-12,1.8
		c-6.4,0-11.9-1.7-16.3-5.1c-4.5-3.4-6.8-7.9-7.1-13.3h16.6c0.4,2.2,1.4,3.7,3,4.6c1.6,0.9,3.3,1.3,5.1,1.3c4.2-0.2,6.5-1.4,6.7-3.7
		c0.2-1.6-0.6-2.8-2.3-3.6c-1.7-0.8-4.4-1.7-8-2.6c-4.5-1.2-8.1-2.4-10.8-3.6c-2.7-1.2-4.9-3-6.6-5.4c-1.7-2.4-2.6-5.6-2.5-9.5
		c0.1-4.9,2.2-8.9,6.3-12c4.1-3.1,9.6-4.6,16.7-4.6c3.8,0,7.2,0.5,10.3,1.6c3.1,1.1,5.8,2.9,8,5.6c2.2,2.6,3.6,6,4.1,10.2H414.7
		L414.7,330.2z"/>
	<path id="XMLID_12_" class="st1" d="M203.2,173.6c-0.5,0-1,0-1.4-0.1c-2.9-0.4-5.2-2.2-6.3-4.9c-0.5-1.3-0.8-2.6-0.8-4.1
		c0-2.1,0.5-4.2,1-5.7c2.4-8.6,5.2-14.6,8.4-18.4c0.6-0.7,1.3-1.4,1.9-1.9l0.2-0.1l0.2-0.2c1.2-0.9,2.4-1.3,3.5-1.3
		c2.7,0,5.5,2.5,8,6.9c2.6,4.6,4.9,11.4,6.6,19.5c0.6,2.7,1.1,5.6,1.5,8.5c-1.2,0.1-2.3,0.2-3.5,0.2c-3.9,0.3-7.6,0.6-11.1,0.9
		c-1.7,0.2-3.5,0.3-5.2,0.5l-0.4,0C204.9,173.6,204.1,173.6,203.2,173.6"/>
	<path id="XMLID_13_" class="st2" d="M207.9,268.9L207.9,268.9c-1.2,0-2.4-0.5-3.6-1.4h0l0,0l-0.1-0.1l-0.1-0.1l-0.1-0.1l-0.1-0.1
		c-0.6-0.5-1.2-1.2-1.8-1.9c-3.3-4.1-5.9-10.5-8-19.7c-0.5-2-0.9-4.1-0.9-6.2c0-1.5,0.2-3,0.8-4.4c1.1-3,3.2-5.1,6.1-5.8
		c0.8-0.2,1.6-0.3,2.5-0.3c0.6,0,1.1,0,1.8,0.1c1.7,0.2,3.6,0.3,5.5,0.5c3.8,0.3,7.7,0.6,11.7,0.9c1.4,0.1,2.8,0.2,4.2,0.3
		c-0.6,3.7-1.2,7.2-2,10.6c-1.9,8.4-4.4,15.4-7.2,20.3C213.7,266.2,210.6,268.9,207.9,268.9"/>
	<path id="XMLID_14_" class="st0" d="M326.6,202.9c-0.1-17.1-5.6-34-15.6-47.6c-8.1-11-18.5-19.5-30.6-24.9
		c-0.9-0.4-4.1-1.2-4.9-1.1c-3,0.6-5.1,3.4-5.8,7c-0.2,0.9-0.2,1.8-0.2,2.8c-0.1,1.8-0.2,3.8-0.3,5.9c0,0.4,0,0.9-0.1,1.5
		c-0.1,2.4-0.2,6-0.5,7.3c-2.1,12.1-14.3,19.8-24.9,20.2c-7.2,0.3-14.3,0.7-21.1,1.1c-3.8,0.3-7.5,0.6-11.1,0.9
		c-1.7,0.2-3.5,0.3-5.2,0.5l-0.4,0c-0.9,0.1-1.9,0.2-2.9,0.2c-0.7,0-1.3,0-1.9-0.1c-4.1-0.6-7.3-3.1-8.8-6.9c-0.7-1.7-1-3.4-1-5.3
		c0-2.5,0.6-4.8,1.1-6.6c0.9-3.3,2.2-7.4,4-11.3c-6.1,6.2-11.2,13.4-15.1,21.4c-5.1,10.6-7.9,22.4-8.2,34.2c0,0.5,0,1,0,1.6
		c0,20.7,7.7,40.3,21.3,55c-1.8-4.3-3-8.9-3.8-12.4c-0.5-2.2-1-4.5-1-7c0-1.9,0.3-3.7,0.9-5.5c1.4-4,4.4-6.8,8.3-7.9
		c1-0.3,2.1-0.4,3.3-0.4c0.6,0,1.3,0,2.1,0.1c1.7,0.2,3.5,0.3,5.4,0.5c3.7,0.3,7.6,0.6,11.6,0.9c7,0.5,14.4,0.9,22,1.1
		c5.9,0.2,12,2.6,16.7,6.6c5,4.2,8.2,9.7,9,15.6c0.2,1.2,0.3,4.8,0.5,7.4c0,0.8,0.1,1.5,0.1,1.9c0.2,3,0.3,5.6,0.5,8v0
		c0.1,1,0.2,2,0.2,2.9c0.7,3.3,2.6,5.9,5.4,6.6c0.9,0.2,1.9,0.2,2.9,0c0.8-0.3,1.5-0.7,2.3-1c11.9-5.5,22.2-14.1,30.1-25.1
		c9.8-13.7,15.2-30.6,15.2-47.6L326.6,202.9L326.6,202.9z"/>
</g>
</svg>
